<?xml version="1.0" encoding="UTF-8" standalone="no"?>
<!DOCTYPE svg PUBLIC "-//W3C//DTD SVG 1.1//EN" "http://www.w3.org/Graphics/SVG/1.1/DTD/svg11.dtd">
<!-- Generated by Microsoft Visio, SVG Export Attention_1.svg Page-1 -->
<svg xmlns="http://www.w3.org/2000/svg" xmlns:xlink="http://www.w3.org/1999/xlink" xmlns:ev="http://www.w3.org/2001/xml-events"
		xmlns:v="http://schemas.microsoft.com/visio/2003/SVGExtensions/" width="6.44542in" height="8.28945in"
		viewBox="0 0 464.07 596.841" xml:space="preserve" color-interpolation-filters="sRGB" class="st20">
	<v:documentProperties v:langID="1032" v:metric="true" v:viewMarkup="false"/>

	<style type="text/css">
	<![CDATA[
		.st1 {fill:#3c3cff;stroke:#000000;stroke-width:1}
		.st2 {fill:#feffff;font-family:Calibri;font-size:1.16666em}
		.st3 {baseline-shift:-32.4943%;font-size:0.649886em}
		.st4 {marker-end:url(#mrkr4-29);marker-start:url(#mrkr4-27);stroke:#000000;stroke-linecap:round;stroke-linejoin:round;stroke-width:1.5}
		.st5 {fill:#000000;fill-opacity:1;stroke:#000000;stroke-opacity:1;stroke-width:0.37313432835821}
		.st6 {marker-end:url(#mrkr4-29);stroke:#000000;stroke-linecap:round;stroke-linejoin:round;stroke-width:1.5}
		.st7 {fill:none;stroke:none;stroke-width:0.25}
		.st8 {fill:#000000;font-family:Times New Roman;font-size:1.99999em;font-style:italic}
		.st9 {baseline-shift:-32.4951%;font-size:0.649901em}
		.st10 {fill:#ffffff;stroke:#000000;stroke-width:1.5}
		.st11 {fill:#000000;font-family:Calibri;font-size:4.99999em}
		.st12 {fill:#000000;font-family:Times New Roman;font-size:1.5em}
		.st13 {fill:#feffff;font-family:Calibri;font-size:1.99999em;font-style:italic}
		.st14 {fill:#c00000;stroke:#000000;stroke-width:1}
		.st15 {stroke:#000000;stroke-dasharray:1,2;stroke-linecap:round;stroke-linejoin:round;stroke-width:1}
		.st16 {fill:#ffffff;stroke:#000000;stroke-width:1}
		.st17 {fill:#000000;stroke:#000000;stroke-width:1}
		.st18 {fill:#000000;font-family:Times New Roman;font-size:1.75001em;font-style:italic}
		.st19 {baseline-shift:-32.4945%;font-size:0.649891em}
		.st20 {fill:none;fill-rule:evenodd;font-size:12px;overflow:visible;stroke-linecap:square;stroke-miterlimit:3}
	]]>
	</style>

	<defs id="Markers">
		<g id="lend4">
			<path d="M 2 1 L 0 0 L 2 -1 L 2 1 " style="stroke:none"/>
		</g>
		<marker id="mrkr4-27" class="st5" v:arrowType="4" v:arrowSize="2" v:setback="5.12" refX="5.12" orient="auto"
				markerUnits="strokeWidth" overflow="visible">
			<use xlink:href="#lend4" transform="scale(2.68) "/>
		</marker>
		<marker id="mrkr4-29" class="st5" v:arrowType="4" v:arrowSize="2" v:setback="5.36" refX="-5.36" orient="auto"
				markerUnits="strokeWidth" overflow="visible">
			<use xlink:href="#lend4" transform="scale(-2.68,-2.68) "/>
		</marker>
	</defs>
	<g v:mID="0" v:index="1" v:groupContext="foregroundPage">
		<title>Page-1</title>
		<v:pageProperties v:drawingScale="0.0393701" v:pageScale="0.0393701" v:drawingUnits="24" v:shadowOffsetX="8.50394"
				v:shadowOffsetY="-8.50394"/>
		<v:layer v:name="Γραμμή σύνδεσης" v:index="0"/>
		<g id="shape126-1" v:mID="126" v:groupContext="shape" transform="translate(19.8376,-119.768)">
			<title>Ορθογώνιο</title>
			<desc>h1</desc>
			<v:userDefs>
				<v:ud v:nameU="visVersion" v:val="VT0(15):26"/>
			</v:userDefs>
			<v:textBlock v:margins="rect(4,4,4,4)" v:tabSpace="42.5197"/>
			<v:textRect cx="14.8819" cy="556.24" width="29.77" height="81.2008"/>
			<rect x="0" y="515.64" width="29.7638" height="81.2008" class="st1"/>
			<text x="8.9" y="560.44" class="st2" v:langID="1033"><v:paragraph v:horizAlign="1"/><v:tabList/>h<tspan dy="-0.284em"
						class="st3" v:baseFontSize="14">1</tspan></text>		</g>
		<g id="shape127-5" v:mID="127" v:groupContext="shape" transform="translate(81.7523,-119.768)">
			<title>Ορθογώνιο.127</title>
			<desc>h2</desc>
			<v:userDefs>
				<v:ud v:nameU="visVersion" v:val="VT0(15):26"/>
			</v:userDefs>
			<v:textBlock v:margins="rect(4,4,4,4)" v:tabSpace="42.5197"/>
			<v:textRect cx="14.8819" cy="556.24" width="29.77" height="81.2008"/>
			<rect x="0" y="515.64" width="29.7638" height="81.2008" class="st1"/>
			<text x="8.9" y="560.44" class="st2" v:langID="1033"><v:paragraph v:horizAlign="1"/><v:tabList/>h<tspan dy="-0.284em"
						class="st3" v:baseFontSize="14">2</tspan></text>		</g>
		<g id="shape128-9" v:mID="128" v:groupContext="shape" transform="translate(143.667,-119.768)">
			<title>Ορθογώνιο.128</title>
			<desc>h3</desc>
			<v:userDefs>
				<v:ud v:nameU="visVersion" v:val="VT0(15):26"/>
			</v:userDefs>
			<v:textBlock v:margins="rect(4,4,4,4)" v:tabSpace="42.5197"/>
			<v:textRect cx="14.8819" cy="556.24" width="29.77" height="81.2008"/>
			<rect x="0" y="515.64" width="29.7638" height="81.2008" class="st1"/>
			<text x="8.9" y="560.44" class="st2" v:langID="1033"><v:paragraph v:horizAlign="1"/><v:tabList/>h<tspan dy="-0.284em"
						class="st3" v:baseFontSize="14">3</tspan></text>		</g>
		<g id="shape129-13" v:mID="129" v:groupContext="shape" transform="translate(205.582,-119.768)">
			<title>Ορθογώνιο.129</title>
			<desc>h4</desc>
			<v:userDefs>
				<v:ud v:nameU="visVersion" v:val="VT0(15):26"/>
			</v:userDefs>
			<v:textBlock v:margins="rect(4,4,4,4)" v:tabSpace="42.5197"/>
			<v:textRect cx="14.8819" cy="556.24" width="29.77" height="81.2008"/>
			<rect x="0" y="515.64" width="29.7638" height="81.2008" class="st1"/>
			<text x="8.9" y="560.44" class="st2" v:langID="1033"><v:paragraph v:horizAlign="1"/><v:tabList/>h<tspan dy="-0.284em"
						class="st3" v:baseFontSize="14">4</tspan></text>		</g>
		<g id="shape130-17" v:mID="130" v:groupContext="shape" transform="translate(267.496,-119.768)">
			<title>Ορθογώνιο.130</title>
			<desc>h5</desc>
			<v:userDefs>
				<v:ud v:nameU="visVersion" v:val="VT0(15):26"/>
			</v:userDefs>
			<v:textBlock v:margins="rect(4,4,4,4)" v:tabSpace="42.5197"/>
			<v:textRect cx="14.8819" cy="556.24" width="29.77" height="81.2008"/>
			<rect x="0" y="515.64" width="29.7638" height="81.2008" class="st1"/>
			<text x="8.9" y="560.44" class="st2" v:langID="1033"><v:paragraph v:horizAlign="1"/><v:tabList/>h<tspan dy="-0.284em"
						class="st3" v:baseFontSize="14">5</tspan></text>		</g>
		<g id="shape137-21" v:mID="137" v:groupContext="shape" v:layerMember="0" transform="translate(49.6014,-167.455)">
			<title>Δυναμική γραμμή σύνδεσης.137</title>
			<path d="M7.68 603.93 L8.04 603.93 L24.11 603.93" class="st4"/>
		</g>
		<g id="shape138-30" v:mID="138" v:groupContext="shape" v:layerMember="0" transform="translate(27.6329,-80.0827)">
			<title>Δυναμική γραμμή σύνδεσης.138</title>
			<path d="M7.09 596.84 L7.09 565.2" class="st6"/>
		</g>
		<g id="shape159-35" v:mID="159" v:groupContext="shape" transform="translate(416.688,-212.338)">
			<title>Sheet.159</title>
			<desc>Ain</desc>
			<v:textBlock v:margins="rect(4,4,4,4)" v:tabSpace="42.5197"/>
			<v:textRect cx="18.4252" cy="586.841" width="36.86" height="20"/>
			<rect x="0" y="576.841" width="36.8504" height="20" class="st7"/>
			<text x="5.03" y="594.04" class="st8" v:langID="1033"><v:paragraph v:horizAlign="1"/><v:tabList/>A<tspan dy="-0.279em"
						class="st9" v:baseFontSize="24">in</tspan></text>		</g>
		<g id="shape228-39" v:mID="228" v:groupContext="shape" transform="translate(205.582,-314.896)">
			<title>Octagon</title>
			<desc>+</desc>
			<v:userDefs>
				<v:ud v:nameU="visVersion" v:val="VT0(15):26"/>
			</v:userDefs>
			<v:textBlock v:margins="rect(4,4,4,4)" v:tabSpace="42.5197"/>
			<v:textRect cx="28.3465" cy="568.494" width="56.7" height="56.6929"/>
			<path d="M40.09 540.15 L16.6 540.15 L0 556.75 L0 580.24 L16.6 596.84 L40.09 596.84 L56.69 580.24 L56.69 556.75 L40.09
						 540.15 Z" class="st10"/>
			<text x="13.4" y="586.49" class="st11" v:langID="1033"><v:paragraph v:horizAlign="1"/><v:tabList/>+</text>		</g>
		<g id="shape229-42" v:mID="229" v:groupContext="shape" transform="translate(-499.309,289.86) rotate(-60)">
			<title>Sheet.229</title>
			<desc>The</desc>
			<v:textBlock v:margins="rect(4,4,4,4)" v:tabSpace="42.5197"/>
			<v:textRect cx="51.6185" cy="586.841" width="103.24" height="20"/>
			<rect x="0" y="576.841" width="103.237" height="20" class="st7"/>
			<text x="37.63" y="592.24" class="st12" v:langID="1033"><v:paragraph v:horizAlign="1"/><v:tabList/>The</text>		</g>
		<g id="shape231-45" v:mID="231" v:groupContext="shape" transform="translate(-375.479,288.442) rotate(-60)">
			<title>Sheet.231</title>
			<desc>is</desc>
			<v:textBlock v:margins="rect(4,4,4,4)" v:tabSpace="42.5197"/>
			<v:textRect cx="51.6185" cy="586.841" width="103.24" height="20"/>
			<rect x="0" y="576.841" width="103.237" height="20" class="st7"/>
			<text x="45.62" y="592.24" class="st12" v:langID="1033"><v:paragraph v:horizAlign="1"/><v:tabList/>is</text>		</g>
		<g id="shape234-48" v:mID="234" v:groupContext="shape" v:layerMember="0" transform="translate(89.5475,-80.0827)">
			<title>Δυναμική γραμμή σύνδεσης.234</title>
			<path d="M7.09 596.84 L7.09 565.2" class="st6"/>
		</g>
		<g id="shape235-53" v:mID="235" v:groupContext="shape" v:layerMember="0" transform="translate(111.516,-153.281)">
			<title>Δυναμική γραμμή σύνδεσης.235</title>
			<path d="M7.68 589.75 L8.04 589.75 L24.11 589.75" class="st4"/>
		</g>
		<g id="shape236-60" v:mID="236" v:groupContext="shape" v:layerMember="0" transform="translate(173.431,-153.282)">
			<title>Δυναμική γραμμή σύνδεσης.236</title>
			<path d="M7.68 589.75 L8.04 589.75 L24.11 589.75" class="st4"/>
		</g>
		<g id="shape237-67" v:mID="237" v:groupContext="shape" v:layerMember="0" transform="translate(235.345,-153.282)">
			<title>Δυναμική γραμμή σύνδεσης.237</title>
			<path d="M7.68 589.75 L8.04 589.75 L24.11 589.75" class="st4"/>
		</g>
		<g id="shape239-74" v:mID="239" v:groupContext="shape" transform="translate(-437.394,295.336) rotate(-60)">
			<title>Sheet.239</title>
			<desc>police</desc>
			<v:textBlock v:margins="rect(4,4,4,4)" v:tabSpace="42.5197"/>
			<v:textRect cx="51.6185" cy="586.841" width="103.24" height="20"/>
			<rect x="0" y="576.841" width="103.237" height="20" class="st7"/>
			<text x="29.63" y="592.24" class="st12" v:langID="1033"><v:paragraph v:horizAlign="1"/><v:tabList/>police</text>		</g>
		<g id="shape240-77" v:mID="240" v:groupContext="shape" v:layerMember="0" transform="translate(151.462,-80.0827)">
			<title>Δυναμική γραμμή σύνδεσης.240</title>
			<path d="M7.09 596.84 L7.09 565.2" class="st6"/>
		</g>
		<g id="shape241-82" v:mID="241" v:groupContext="shape" v:layerMember="0" transform="translate(213.377,-80.0827)">
			<title>Δυναμική γραμμή σύνδεσης.241</title>
			<path d="M7.09 596.84 L7.09 565.2" class="st6"/>
		</g>
		<g id="shape242-87" v:mID="242" v:groupContext="shape" transform="translate(-313.565,298.17) rotate(-60)">
			<title>Sheet.242</title>
			<desc>chasing</desc>
			<v:textBlock v:margins="rect(4,4,4,4)" v:tabSpace="42.5197"/>
			<v:textRect cx="51.6185" cy="586.841" width="103.24" height="20"/>
			<rect x="0" y="576.841" width="103.237" height="20" class="st7"/>
			<text x="24.13" y="592.24" class="st12" v:langID="1033"><v:paragraph v:horizAlign="1"/><v:tabList/>chasing</text>		</g>
		<g id="shape243-90" v:mID="243" v:groupContext="shape" transform="translate(-251.65,288.442) rotate(-60)">
			<title>Sheet.243</title>
			<desc>a</desc>
			<v:textBlock v:margins="rect(4,4,4,4)" v:tabSpace="42.5197"/>
			<v:textRect cx="51.6185" cy="586.841" width="103.24" height="20"/>
			<rect x="0" y="576.841" width="103.237" height="20" class="st7"/>
			<text x="47.62" y="592.24" class="st12" v:langID="1033"><v:paragraph v:horizAlign="1"/><v:tabList/>a</text>		</g>
		<g id="shape244-93" v:mID="244" v:groupContext="shape" v:layerMember="0" transform="translate(275.291,-80.0827)">
			<title>Δυναμική γραμμή σύνδεσης.244</title>
			<path d="M7.09 596.84 L7.09 565.2" class="st6"/>
		</g>
		<g id="shape245-98" v:mID="245" v:groupContext="shape" transform="translate(278.069,-150.368)">
			<title>Sheet.245</title>
			<desc>. . .</desc>
			<v:textBlock v:margins="rect(4,4,4,4)" v:tabSpace="42.5197"/>
			<v:textRect cx="46.4933" cy="586.841" width="92.99" height="20"/>
			<rect x="0" y="576.841" width="92.9866" height="20" class="st7"/>
			<text x="35.24" y="592.24" class="st12" v:langID="1033"><v:paragraph v:horizAlign="1"/><v:tabList/>. . .</text>		</g>
		<g id="shape246-101" v:mID="246" v:groupContext="shape" transform="translate(352.554,-120.309)">
			<title>Ορθογώνιο.246</title>
			<desc>...</desc>
			<v:userDefs>
				<v:ud v:nameU="visVersion" v:val="VT0(15):26"/>
			</v:userDefs>
			<v:textBlock v:margins="rect(4,4,4,4)" v:tabSpace="42.5197"/>
			<v:textRect cx="14.8819" cy="556.24" width="29.77" height="81.2008"/>
			<rect x="0" y="515.64" width="29.7638" height="81.2008" class="st1"/>
			<text x="9.58" y="560.44" class="st2" v:langID="1033"><v:paragraph v:horizAlign="1"/><v:tabList/>...</text>		</g>
		<g id="shape248-104" v:mID="248" v:groupContext="shape" v:layerMember="0" transform="translate(360.349,-80.624)">
			<title>Δυναμική γραμμή σύνδεσης.248</title>
			<path d="M7.09 596.84 L7.09 565.2" class="st6"/>
		</g>
		<g id="shape249-109" v:mID="249" v:groupContext="shape" transform="translate(414.469,-120.309)">
			<title>Ορθογώνιο.249</title>
			<desc>hn</desc>
			<v:userDefs>
				<v:ud v:nameU="visVersion" v:val="VT0(15):26"/>
			</v:userDefs>
			<v:textBlock v:margins="rect(4,4,4,4)" v:tabSpace="42.5197"/>
			<v:textRect cx="14.8819" cy="556.24" width="29.77" height="81.2008"/>
			<rect x="0" y="515.64" width="29.7638" height="81.2008" class="st1"/>
			<text x="8.81" y="560.44" class="st2" v:langID="1033"><v:paragraph v:horizAlign="1"/><v:tabList/>h<tspan dy="-0.284em"
						class="st3" v:baseFontSize="14">n</tspan></text>		</g>
		<g id="shape250-113" v:mID="250" v:groupContext="shape" v:layerMember="0" transform="translate(382.318,-153.823)">
			<title>Δυναμική γραμμή σύνδεσης.250</title>
			<path d="M7.68 589.75 L8.04 589.75 L24.11 589.75" class="st4"/>
		</g>
		<g id="shape251-120" v:mID="251" v:groupContext="shape" v:layerMember="0" transform="translate(422.264,-80.624)">
			<title>Δυναμική γραμμή σύνδεσης.251</title>
			<path d="M7.09 596.84 L7.09 565.2" class="st6"/>
		</g>
		<g id="shape252-125" v:mID="252" v:groupContext="shape" transform="translate(-166.592,288.346) rotate(-60)">
			<title>Sheet.252</title>
			<desc>the</desc>
			<v:textBlock v:margins="rect(4,4,4,4)" v:tabSpace="42.5197"/>
			<v:textRect cx="51.6185" cy="586.841" width="103.24" height="20"/>
			<rect x="0" y="576.841" width="103.237" height="20" class="st7"/>
			<text x="40.62" y="592.24" class="st12" v:langID="1033"><v:paragraph v:horizAlign="1"/><v:tabList/>the</text>		</g>
		<g id="shape253-128" v:mID="253" v:groupContext="shape" transform="translate(-104.677,288.346) rotate(-60)">
			<title>Sheet.253</title>
			<desc>run</desc>
			<v:textBlock v:margins="rect(4,4,4,4)" v:tabSpace="42.5197"/>
			<v:textRect cx="51.6185" cy="586.841" width="103.24" height="20"/>
			<rect x="0" y="576.841" width="103.237" height="20" class="st7"/>
			<text x="39.62" y="592.24" class="st12" v:langID="1033"><v:paragraph v:horizAlign="1"/><v:tabList/>run</text>		</g>
		<g id="shape255-131" v:mID="255" v:groupContext="shape" transform="translate(129.149,-419.778)">
			<title>Parallelogram</title>
			<desc>Μ</desc>
			<v:userDefs>
				<v:ud v:nameU="visVersion" v:prompt="" v:val="VT0(15):26"/>
			</v:userDefs>
			<v:textBlock v:margins="rect(4,4,4,4)" v:tabSpace="42.5197"/>
			<v:textRect cx="98.8583" cy="568.494" width="197.72" height="56.6929"/>
			<path d="M0 596.84 L177.94 596.84 L197.72 540.15 L19.77 540.15 L0 596.84 Z" class="st1"/>
			<text x="88.6" y="575.69" class="st13" v:langID="1032"><v:paragraph v:horizAlign="1"/><v:tabList/>Μ</text>		</g>
		<g id="shape263-134" v:mID="263" v:groupContext="shape" transform="translate(62.3573,-516.156)">
			<title>Round Corner Rectangle</title>
			<v:userDefs>
				<v:ud v:nameU="CTypeTopLeftSnip" v:prompt="" v:val="VT0(0):5"/>
				<v:ud v:nameU="CTypeTopRightSnip" v:prompt="" v:val="VT0(0):5"/>
				<v:ud v:nameU="CTypeBotLeftSnip" v:prompt="" v:val="VT0(0):5"/>
				<v:ud v:nameU="CTypeBotRightSnip" v:prompt="" v:val="VT0(0):5"/>
				<v:ud v:nameU="CornerLockHoriz" v:prompt="" v:val="VT0(0):5"/>
				<v:ud v:nameU="CornerLockVert" v:prompt="" v:val="VT0(0):5"/>
				<v:ud v:nameU="CornerLockDiag" v:prompt="" v:val="VT0(0):5"/>
				<v:ud v:nameU="TopLeftOffset" v:prompt="" v:val="VT0(0.15748031496063):24"/>
				<v:ud v:nameU="TopRightOffset" v:prompt="" v:val="VT0(0.15748031496063):24"/>
				<v:ud v:nameU="BotLeftOffset" v:prompt="" v:val="VT0(0.15748031496063):24"/>
				<v:ud v:nameU="BotRightOffset" v:prompt="" v:val="VT0(0.15748031496063):24"/>
				<v:ud v:nameU="visVersion" v:prompt="" v:val="VT0(15):26"/>
				<v:ud v:nameU="TopLeftOffset" v:prompt="" v:val="VT0(0.13888888888889):1"/>
				<v:ud v:nameU="TopRightOffset" v:prompt="" v:val="VT0(0.13888888888889):1"/>
				<v:ud v:nameU="BotLeftOffset" v:prompt="" v:val="VT0(0.13888888888889):1"/>
				<v:ud v:nameU="BotRightOffset" v:prompt="" v:val="VT0(0.13888888888889):1"/>
			</v:userDefs>
			<path d="M10 596.84 L321.3 596.84 A9.99984 9.99984 -180 0 0 331.3 586.84 A9.99984 9.99984 -180 0 0 321.3 576.84 L10 576.84
						 A9.99984 9.99984 -180 0 0 0 586.84 A9.99984 9.99984 -180 0 0 10 596.84 Z" class="st1"/>
		</g>
		<g id="shape265-136" v:mID="265" v:groupContext="shape" v:layerMember="0" transform="translate(220.92,-536.156)">
			<title>Δυναμική γραμμή σύνδεσης.265</title>
			<path d="M7.09 596.84 L7.09 565.2" class="st6"/>
		</g>
		<g id="shape266-141" v:mID="266" v:groupContext="shape" transform="translate(175.553,-575.841)">
			<title>Round Corner Rectangle.266</title>
			<v:userDefs>
				<v:ud v:nameU="CTypeTopLeftSnip" v:prompt="" v:val="VT0(0):5"/>
				<v:ud v:nameU="CTypeTopRightSnip" v:prompt="" v:val="VT0(0):5"/>
				<v:ud v:nameU="CTypeBotLeftSnip" v:prompt="" v:val="VT0(0):5"/>
				<v:ud v:nameU="CTypeBotRightSnip" v:prompt="" v:val="VT0(0):5"/>
				<v:ud v:nameU="CornerLockHoriz" v:prompt="" v:val="VT0(0):5"/>
				<v:ud v:nameU="CornerLockVert" v:prompt="" v:val="VT0(0):5"/>
				<v:ud v:nameU="CornerLockDiag" v:prompt="" v:val="VT0(0):5"/>
				<v:ud v:nameU="TopLeftOffset" v:prompt="" v:val="VT0(0.15748031496063):24"/>
				<v:ud v:nameU="TopRightOffset" v:prompt="" v:val="VT0(0.15748031496063):24"/>
				<v:ud v:nameU="BotLeftOffset" v:prompt="" v:val="VT0(0.15748031496063):24"/>
				<v:ud v:nameU="BotRightOffset" v:prompt="" v:val="VT0(0.15748031496063):24"/>
				<v:ud v:nameU="visVersion" v:prompt="" v:val="VT0(15):26"/>
				<v:ud v:nameU="TopLeftOffset" v:prompt="" v:val="VT0(0.13888888888889):1"/>
				<v:ud v:nameU="TopRightOffset" v:prompt="" v:val="VT0(0.13888888888889):1"/>
				<v:ud v:nameU="BotLeftOffset" v:prompt="" v:val="VT0(0.13888888888889):1"/>
				<v:ud v:nameU="BotRightOffset" v:prompt="" v:val="VT0(0.13888888888889):1"/>
			</v:userDefs>
			<path d="M10 596.84 L94.91 596.84 A9.99984 9.99984 -180 0 0 104.91 586.84 A9.99984 9.99984 -180 0 0 94.91 576.84 L10
						 576.84 A9.99984 9.99984 -180 0 0 0 586.84 A9.99984 9.99984 -180 0 0 10 596.84 Z" class="st14"/>
		</g>
		<g id="shape317-143" v:mID="317" v:groupContext="shape" v:layerMember="0" transform="translate(34.7195,-200.969)">
			<title>Δυναμική γραμμή σύνδεσης.317</title>
			<path d="M0 596.84 L180.6 487.09" class="st6"/>
		</g>
		<g id="shape318-148" v:mID="318" v:groupContext="shape" v:layerMember="0" transform="translate(96.6342,-200.969)">
			<title>Δυναμική γραμμή σύνδεσης.318</title>
			<path d="M0 596.84 L119.6 488.32" class="st6"/>
		</g>
		<g id="shape319-153" v:mID="319" v:groupContext="shape" v:layerMember="0" transform="translate(158.549,-200.969)">
			<title>Δυναμική γραμμή σύνδεσης.319</title>
			<path d="M0 596.84 L59.72 489.93" class="st6"/>
		</g>
		<g id="shape320-158" v:mID="320" v:groupContext="shape" v:layerMember="0" transform="translate(214.238,-200.969)">
			<title>Δυναμική γραμμή σύνδεσης.320</title>
			<path d="M6.23 596.84 L7.83 490.95" class="st6"/>
		</g>
		<g id="shape321-163" v:mID="321" v:groupContext="shape" v:layerMember="0" transform="translate(282.378,-200.969)">
			<title>Δυναμική γραμμή σύνδεσης.321</title>
			<path d="M0 596.84 L-34.24 490.57" class="st6"/>
		</g>
		<g id="shape322-168" v:mID="322" v:groupContext="shape" v:layerMember="0" transform="translate(367.436,-201.51)">
			<title>Δυναμική γραμμή σύνδεσης.322</title>
			<path d="M0 596.84 L-115.88 488.93" class="st6"/>
		</g>
		<g id="shape374-173" v:mID="374" v:groupContext="shape" v:layerMember="0" transform="translate(429.351,-201.51)">
			<title>Δυναμική γραμμή σύνδεσης.374</title>
			<path d="M0 596.84 L-176.84 487.68" class="st6"/>
		</g>
		<g id="shape375-178" v:mID="375" v:groupContext="shape" v:layerMember="0" transform="translate(227.24,-371.589)">
			<title>Δυναμική γραμμή σύνδεσης.375</title>
			<path d="M-5.05 596.84 L-8.44 556.66" class="st6"/>
		</g>
		<g id="shape377-183" v:mID="377" v:groupContext="shape" v:layerMember="0" transform="translate(220.92,-476.47)">
			<title>Δυναμική γραμμή σύνδεσης.377</title>
			<path d="M7.09 596.84 L7.09 557.16" class="st15"/>
		</g>
		<g id="shape378-186" v:mID="378" v:groupContext="shape" transform="translate(2.12109,-212.77)">
			<title>Sheet.378</title>
			<desc>A1n</desc>
			<v:textBlock v:margins="rect(4,4,4,4)" v:tabSpace="42.5197"/>
			<v:textRect cx="24.8032" cy="586.841" width="49.61" height="20"/>
			<rect x="0" y="576.841" width="49.6063" height="20" class="st7"/>
			<text x="9.67" y="594.04" class="st8" v:langID="1033"><v:paragraph v:horizAlign="1"/><v:tabList/>A<tspan dy="-0.279em"
						class="st9" v:baseFontSize="24">1n</tspan></text>		</g>
		<g id="shape379-190" v:mID="379" v:groupContext="shape" transform="translate(68.0266,-212.77)">
			<title>Sheet.379</title>
			<desc>A2n</desc>
			<v:textBlock v:margins="rect(4,4,4,4)" v:tabSpace="42.5197"/>
			<v:textRect cx="24.8032" cy="586.841" width="49.61" height="20"/>
			<rect x="0" y="576.841" width="49.6063" height="20" class="st7"/>
			<text x="9.67" y="594.04" class="st8" v:langID="1033"><v:paragraph v:horizAlign="1"/><v:tabList/>A<tspan dy="-0.279em"
						class="st9" v:baseFontSize="24">2n</tspan></text>		</g>
		<g id="shape380-194" v:mID="380" v:groupContext="shape" transform="translate(120.468,-211.352)">
			<title>Sheet.380</title>
			<desc>A3n</desc>
			<v:textBlock v:margins="rect(4,4,4,4)" v:tabSpace="42.5197"/>
			<v:textRect cx="24.8032" cy="586.841" width="49.61" height="20"/>
			<rect x="0" y="576.841" width="49.6063" height="20" class="st7"/>
			<text x="9.67" y="594.04" class="st8" v:langID="1033"><v:paragraph v:horizAlign="1"/><v:tabList/>A<tspan dy="-0.279em"
						class="st9" v:baseFontSize="24">3n</tspan></text>		</g>
		<g id="shape381-198" v:mID="381" v:groupContext="shape" transform="translate(177.572,-211.352)">
			<title>Sheet.381</title>
			<desc>A4n</desc>
			<v:textBlock v:margins="rect(4,4,4,4)" v:tabSpace="42.5197"/>
			<v:textRect cx="24.8032" cy="586.841" width="49.61" height="20"/>
			<rect x="0" y="576.841" width="49.6063" height="20" class="st7"/>
			<text x="9.67" y="594.04" class="st8" v:langID="1033"><v:paragraph v:horizAlign="1"/><v:tabList/>A<tspan dy="-0.279em"
						class="st9" v:baseFontSize="24">4n</tspan></text>		</g>
		<g id="shape382-202" v:mID="382" v:groupContext="shape" transform="translate(70.0868,-519.712)">
			<title>Κύκλος</title>
			<v:userDefs>
				<v:ud v:nameU="visVersion" v:val="VT0(15):26"/>
			</v:userDefs>
			<path d="M0 590.4 A6.44377 6.44377 0 0 1 12.89 590.4 A6.44377 6.44377 0 1 1 0 590.4 Z" class="st16"/>
		</g>
		<g id="shape383-204" v:mID="383" v:groupContext="shape" transform="translate(90.7038,-519.712)">
			<title>Κύκλος.383</title>
			<v:userDefs>
				<v:ud v:nameU="visVersion" v:val="VT0(15):26"/>
			</v:userDefs>
			<path d="M0 590.4 A6.44377 6.44377 0 0 1 12.89 590.4 A6.44377 6.44377 0 1 1 0 590.4 Z" class="st16"/>
		</g>
		<g id="shape384-206" v:mID="384" v:groupContext="shape" transform="translate(111.321,-519.712)">
			<title>Κύκλος.384</title>
			<v:userDefs>
				<v:ud v:nameU="visVersion" v:val="VT0(15):26"/>
			</v:userDefs>
			<path d="M0 590.4 A6.44377 6.44377 0 0 1 12.89 590.4 A6.44377 6.44377 0 1 1 0 590.4 Z" class="st16"/>
		</g>
		<g id="shape385-208" v:mID="385" v:groupContext="shape" transform="translate(131.938,-519.712)">
			<title>Κύκλος.385</title>
			<v:userDefs>
				<v:ud v:nameU="visVersion" v:val="VT0(15):26"/>
			</v:userDefs>
			<path d="M0 590.4 A6.44377 6.44377 0 0 1 12.89 590.4 A6.44377 6.44377 0 1 1 0 590.4 Z" class="st16"/>
		</g>
		<g id="shape386-210" v:mID="386" v:groupContext="shape" transform="translate(221.563,-519.712)">
			<title>Κύκλος.386</title>
			<v:userDefs>
				<v:ud v:nameU="visVersion" v:val="VT0(15):26"/>
			</v:userDefs>
			<path d="M0 590.4 A6.44377 6.44377 0 0 1 12.89 590.4 A6.44377 6.44377 0 1 1 0 590.4 Z" class="st16"/>
		</g>
		<g id="shape387-212" v:mID="387" v:groupContext="shape" transform="translate(374.168,-519.712)">
			<title>Κύκλος.387</title>
			<v:userDefs>
				<v:ud v:nameU="visVersion" v:val="VT0(15):26"/>
			</v:userDefs>
			<path d="M0 590.4 A6.44377 6.44377 0 0 1 12.89 590.4 A6.44377 6.44377 0 1 1 0 590.4 Z" class="st16"/>
		</g>
		<g id="shape388-214" v:mID="388" v:groupContext="shape" transform="translate(181.412,-579.397)">
			<title>Κύκλος.388</title>
			<v:userDefs>
				<v:ud v:nameU="visVersion" v:val="VT0(15):26"/>
			</v:userDefs>
			<path d="M0 590.4 A6.44377 6.44377 0 0 1 12.89 590.4 A6.44377 6.44377 0 1 1 0 590.4 Z" class="st16"/>
		</g>
		<g id="shape389-216" v:mID="389" v:groupContext="shape" transform="translate(200.901,-579.397)">
			<title>Κύκλος.389</title>
			<v:userDefs>
				<v:ud v:nameU="visVersion" v:val="VT0(15):26"/>
			</v:userDefs>
			<path d="M0 590.4 A6.44377 6.44377 0 0 1 12.89 590.4 A6.44377 6.44377 0 1 1 0 590.4 Z" class="st16"/>
		</g>
		<g id="shape390-218" v:mID="390" v:groupContext="shape" transform="translate(221.563,-579.397)">
			<title>Κύκλος.390</title>
			<v:userDefs>
				<v:ud v:nameU="visVersion" v:val="VT0(15):26"/>
			</v:userDefs>
			<path d="M0 590.4 A6.44377 6.44377 0 0 1 12.89 590.4 A6.44377 6.44377 0 1 1 0 590.4 Z" class="st16"/>
		</g>
		<g id="shape391-220" v:mID="391" v:groupContext="shape" transform="translate(262.888,-579.397)">
			<title>Κύκλος.391</title>
			<v:userDefs>
				<v:ud v:nameU="visVersion" v:val="VT0(15):26"/>
			</v:userDefs>
			<path d="M0 590.4 A6.44377 6.44377 0 0 1 12.89 590.4 A6.44377 6.44377 0 1 1 0 590.4 Z" class="st16"/>
		</g>
		<g id="shape392-222" v:mID="392" v:groupContext="shape" transform="translate(242.226,-579.397)">
			<title>Κύκλος.392</title>
			<v:userDefs>
				<v:ud v:nameU="visVersion" v:val="VT0(15):26"/>
			</v:userDefs>
			<path d="M0 590.4 A6.44377 6.44377 0 0 1 12.89 590.4 A6.44377 6.44377 0 1 1 0 590.4 Z" class="st16"/>
		</g>
		<g id="shape394-224" v:mID="394" v:groupContext="shape" transform="translate(168.211,-523.065)">
			<title>Κύκλος.393</title>
			<v:userDefs>
				<v:ud v:nameU="visVersion" v:val="VT0(15):26"/>
			</v:userDefs>
			<path d="M0 593.75 A3.09022 3.09022 0 1 1 6.18 593.75 A3.09022 3.09022 0 0 1 0 593.75 Z" class="st17"/>
		</g>
		<g id="shape396-226" v:mID="396" v:groupContext="shape" transform="translate(179.74,-523.065)">
			<title>Κύκλος.396</title>
			<v:userDefs>
				<v:ud v:nameU="visVersion" v:val="VT0(15):26"/>
			</v:userDefs>
			<path d="M0 593.75 A3.09022 3.09022 0 1 1 6.18 593.75 A3.09022 3.09022 0 0 1 0 593.75 Z" class="st17"/>
		</g>
		<g id="shape397-228" v:mID="397" v:groupContext="shape" transform="translate(191.268,-523.065)">
			<title>Κύκλος.397</title>
			<v:userDefs>
				<v:ud v:nameU="visVersion" v:val="VT0(15):26"/>
			</v:userDefs>
			<path d="M0 593.75 A3.09022 3.09022 0 1 1 6.18 593.75 A3.09022 3.09022 0 0 1 0 593.75 Z" class="st17"/>
		</g>
		<g id="shape398-230" v:mID="398" v:groupContext="shape" transform="translate(285.404,-523.065)">
			<title>Κύκλος.398</title>
			<v:userDefs>
				<v:ud v:nameU="visVersion" v:val="VT0(15):26"/>
			</v:userDefs>
			<path d="M0 593.75 A3.09022 3.09022 0 1 1 6.18 593.75 A3.09022 3.09022 0 0 1 0 593.75 Z" class="st17"/>
		</g>
		<g id="shape399-232" v:mID="399" v:groupContext="shape" transform="translate(297.122,-523.065)">
			<title>Κύκλος.399</title>
			<v:userDefs>
				<v:ud v:nameU="visVersion" v:val="VT0(15):26"/>
			</v:userDefs>
			<path d="M0 593.75 A3.09022 3.09022 0 1 1 6.18 593.75 A3.09022 3.09022 0 0 1 0 593.75 Z" class="st17"/>
		</g>
		<g id="shape400-234" v:mID="400" v:groupContext="shape" transform="translate(308.84,-523.065)">
			<title>Κύκλος.400</title>
			<v:userDefs>
				<v:ud v:nameU="visVersion" v:val="VT0(15):26"/>
			</v:userDefs>
			<path d="M0 593.75 A3.09022 3.09022 0 1 1 6.18 593.75 A3.09022 3.09022 0 0 1 0 593.75 Z" class="st17"/>
		</g>
		<g id="shape401-236" v:mID="401" v:groupContext="shape" transform="translate(320.558,-523.065)">
			<title>Κύκλος.401</title>
			<v:userDefs>
				<v:ud v:nameU="visVersion" v:val="VT0(15):26"/>
			</v:userDefs>
			<path d="M0 593.75 A3.09022 3.09022 0 1 1 6.18 593.75 A3.09022 3.09022 0 0 1 0 593.75 Z" class="st17"/>
		</g>
		<g id="shape403-238" v:mID="403" v:groupContext="shape" transform="translate(332.276,-523.065)">
			<title>Κύκλος.403</title>
			<v:userDefs>
				<v:ud v:nameU="visVersion" v:val="VT0(15):26"/>
			</v:userDefs>
			<path d="M0 593.75 A3.09022 3.09022 0 1 1 6.18 593.75 A3.09022 3.09022 0 0 1 0 593.75 Z" class="st17"/>
		</g>
		<g id="shape404-240" v:mID="404" v:groupContext="shape" transform="translate(273.685,-523.065)">
			<title>Κύκλος.404</title>
			<v:userDefs>
				<v:ud v:nameU="visVersion" v:val="VT0(15):26"/>
			</v:userDefs>
			<path d="M0 593.75 A3.09022 3.09022 0 1 1 6.18 593.75 A3.09022 3.09022 0 0 1 0 593.75 Z" class="st17"/>
		</g>
		<g id="shape406-242" v:mID="406" v:groupContext="shape" transform="translate(225.424,-385.762)">
			<title>Sheet.406</title>
			<desc>mi</desc>
			<v:textBlock v:margins="rect(4,4,4,4)" v:tabSpace="42.5197"/>
			<v:textRect cx="18.4252" cy="586.841" width="36.86" height="20"/>
			<rect x="0" y="576.841" width="36.8504" height="20" class="st7"/>
			<text x="7.59" y="594.04" class="st8" v:langID="1033"><v:paragraph v:horizAlign="1"/><v:tabList/>m<tspan dy="-0.279em"
						class="st9" v:baseFontSize="24">i</tspan></text>		</g>
		<g id="shape531-246" v:mID="531" v:groupContext="shape" transform="translate(234.265,-211.352)">
			<title>Sheet.531</title>
			<desc>A5n</desc>
			<v:textBlock v:margins="rect(4,4,4,4)" v:tabSpace="42.5197"/>
			<v:textRect cx="24.8032" cy="586.841" width="49.61" height="20"/>
			<rect x="0" y="576.841" width="49.6063" height="20" class="st7"/>
			<text x="9.67" y="594.04" class="st8" v:langID="1033"><v:paragraph v:horizAlign="1"/><v:tabList/>A<tspan dy="-0.279em"
						class="st9" v:baseFontSize="24">5n</tspan></text>		</g>
		<g id="shape532-250" v:mID="532" v:groupContext="shape" transform="translate(341.12,-212.338)">
			<title>Sheet.532</title>
			<desc>A(i-1)n</desc>
			<v:textBlock v:margins="rect(4,4,4,4)" v:tabSpace="42.5197"/>
			<v:textRect cx="34.4695" cy="586.841" width="68.94" height="20"/>
			<rect x="0" y="576.841" width="68.939" height="20" class="st7"/>
			<text x="12.52" y="593.14" class="st18" v:langID="1033"><v:paragraph v:horizAlign="1"/><v:tabList/>A<tspan
						dy="-0.279em" class="st19" v:baseFontSize="21">(i</tspan><tspan class="st19" v:baseFontSize="21">-</tspan><tspan
						class="st19" v:baseFontSize="21">1)n</tspan></text>		</g>
	</g>
</svg>
